<svg width="18" height="18" viewBox="0 0 18 18" fill="none" xmlns="http://www.w3.org/2000/svg">
<mask id="path-1-outside-1_331_225" maskUnits="userSpaceOnUse" x="0" y="0" width="18" height="18" fill="black">
<rect fill="white" width="18" height="18"/>
<path d="M1 9C1 4.58172 4.58172 1 9 1V1C13.4183 1 17 4.58172 17 9V9C17 13.4183 13.4183 17 9 17V17C4.58172 17 1 13.4183 1 9V9Z"/>
</mask>
<path d="M1 9C1 4.58172 4.58172 1 9 1V1C13.4183 1 17 4.58172 17 9V9C17 13.4183 13.4183 17 9 17V17C4.58172 17 1 13.4183 1 9V9Z" fill="#0F0F0F"/>
<path d="M9 16C5.13401 16 2 12.866 2 9H0C0 13.9706 4.02944 18 9 18V16ZM16 9C16 12.866 12.866 16 9 16V18C13.9706 18 18 13.9706 18 9H16ZM9 2C12.866 2 16 5.13401 16 9H18C18 4.02944 13.9706 0 9 0V2ZM9 0C4.02944 0 0 4.02944 0 9H2C2 5.13401 5.13401 2 9 2V0Z" fill="white" mask="url(#path-1-outside-1_331_225)"/>
<path d="M9.00001 2L9.66637 5.48413C9.80399 6.18972 10.1494 6.83806 10.6583 7.34583C11.1672 7.85359 11.8163 8.19759 12.5222 8.33364L16 9L12.5222 9.67271C11.8163 9.80876 11.1672 10.1528 10.6583 10.6605C10.1494 11.1683 9.80399 11.8166 9.66637 12.5222L9.00001 16L8.32728 12.5222C8.19009 11.8175 7.84559 11.1698 7.33792 10.6621C6.83024 10.1544 6.18252 9.8099 5.47779 9.67271L2 9L5.47779 8.33364C6.18252 8.19645 6.83024 7.85193 7.33792 7.34426C7.84559 6.83658 8.19009 6.18886 8.32728 5.48413L9.00001 2Z" fill="#FC921D"/>
</svg>
