<svg width="48" height="48" viewBox="0 0 48 48" fill="none" xmlns="http://www.w3.org/2000/svg">
<g filter="url(#filter0_d_198_229)">
<rect x="4" width="40" height="40" rx="20" fill="#AFCBE3"/>
<path fill-rule="evenodd" clip-rule="evenodd" d="M36.34 20.2954C36.34 19.3736 36.2573 18.4873 36.1036 17.6364H23.86V22.665H30.8563C30.555 24.29 29.6391 25.6668 28.2623 26.5886V29.8504H32.4636C34.9218 27.5873 36.34 24.2545 36.34 20.2954Z" fill="#607380"/>
<path fill-rule="evenodd" clip-rule="evenodd" d="M23.8601 33C27.3701 33 30.3128 31.8359 32.4637 29.8504L28.2623 26.5886C27.0982 27.3686 25.6092 27.8295 23.8601 27.8295C20.4742 27.8295 17.6083 25.5427 16.586 22.47H12.2428V25.8382C14.3819 30.0868 18.7783 33 23.8601 33Z" fill="#607380"/>
<path fill-rule="evenodd" clip-rule="evenodd" d="M16.5859 22.47C16.3259 21.69 16.1782 20.8569 16.1782 20C16.1782 19.1432 16.3259 18.31 16.5859 17.53V14.1619H12.2427C11.3623 15.9169 10.86 17.9023 10.86 20C10.86 22.0978 11.3623 24.0832 12.2427 25.8382L16.5859 22.47Z" fill="#607380"/>
<path fill-rule="evenodd" clip-rule="evenodd" d="M23.8601 12.1705C25.7687 12.1705 27.4823 12.8264 28.8296 14.1145L32.5582 10.3859C30.3069 8.28818 27.3642 7 23.8601 7C18.7783 7 14.3819 9.91318 12.2428 14.1618L16.586 17.53C17.6083 14.4573 20.4742 12.1705 23.8601 12.1705Z" fill="#607380"/>
</g>
<defs>
<filter id="filter0_d_198_229" x="0" y="0" width="48" height="48" filterUnits="userSpaceOnUse" color-interpolation-filters="sRGB">
<feFlood flood-opacity="0" result="BackgroundImageFix"/>
<feColorMatrix in="SourceAlpha" type="matrix" values="0 0 0 0 0 0 0 0 0 0 0 0 0 0 0 0 0 0 127 0" result="hardAlpha"/>
<feOffset dy="4"/>
<feGaussianBlur stdDeviation="2"/>
<feComposite in2="hardAlpha" operator="out"/>
<feColorMatrix type="matrix" values="0 0 0 0 0 0 0 0 0 0 0 0 0 0 0 0 0 0 0.25 0"/>
<feBlend mode="normal" in2="BackgroundImageFix" result="effect1_dropShadow_198_229"/>
<feBlend mode="normal" in="SourceGraphic" in2="effect1_dropShadow_198_229" result="shape"/>
</filter>
</defs>
</svg>
