<svg width="48" height="48" viewBox="0 0 48 48" fill="none" xmlns="http://www.w3.org/2000/svg">
<g filter="url(#filter0_d_198_223)">
<rect x="4" width="40" height="40" rx="20" fill="#AFCBE3"/>
<path d="M24.0032 10.163C27.2096 10.163 27.586 10.1773 28.8534 10.2345C30.0254 10.2869 30.6591 10.4823 31.0831 10.649C31.6453 10.8682 32.0455 11.1255 32.4648 11.5447C32.8841 11.964 33.1461 12.3642 33.3605 12.9264C33.5225 13.3504 33.7226 13.9841 33.775 15.1562C33.8322 16.4235 33.8465 16.7999 33.8465 20.0064C33.8465 23.2128 33.8322 23.5892 33.775 24.8565C33.7226 26.0286 33.5273 26.6623 33.3605 27.0863C33.1414 27.6485 32.8841 28.0487 32.4648 28.468C32.0455 28.8872 31.6453 29.1493 31.0831 29.3637C30.6591 29.5257 30.0254 29.7258 28.8534 29.7782C27.586 29.8354 27.2096 29.8497 24.0032 29.8497C20.7967 29.8497 20.4203 29.8354 19.153 29.7782C17.9809 29.7258 17.3473 29.5304 16.9232 29.3637C16.361 29.1445 15.9608 28.8872 15.5416 28.468C15.1223 28.0487 14.8602 27.6485 14.6458 27.0863C14.4839 26.6623 14.2837 26.0286 14.2313 24.8565C14.1742 23.5892 14.1599 23.2128 14.1599 20.0064C14.1599 16.7999 14.1742 16.4235 14.2313 15.1562C14.2837 13.9841 14.4791 13.3504 14.6458 12.9264C14.865 12.3642 15.1223 11.964 15.5416 11.5447C15.9608 11.1255 16.361 10.8634 16.9232 10.649C17.3473 10.487 17.9809 10.2869 19.153 10.2345C20.4203 10.1726 20.8015 10.163 24.0032 10.163ZM24.0032 8C20.7443 8 20.3346 8.01429 19.0529 8.07147C17.7761 8.12864 16.9042 8.33351 16.1419 8.6289C15.351 8.93383 14.684 9.34833 14.0169 10.0154C13.3499 10.6824 12.9402 11.3542 12.6305 12.1403C12.3351 12.9026 12.1302 13.7745 12.0731 15.0561C12.0159 16.333 12.0016 16.7427 12.0016 20.0016C12.0016 23.2605 12.0159 23.6702 12.0731 24.9518C12.1302 26.2287 12.3351 27.1006 12.6305 27.8677C12.9354 28.6585 13.3499 29.3256 14.0169 29.9926C14.684 30.6596 15.3557 31.0693 16.1419 31.379C16.9042 31.6744 17.7761 31.8793 19.0577 31.9365C20.3393 31.9936 20.7443 32.0079 24.0079 32.0079C27.2716 32.0079 27.6766 31.9936 28.9582 31.9365C30.2351 31.8793 31.1069 31.6744 31.874 31.379C32.6649 31.0741 33.3319 30.6596 33.999 29.9926C34.666 29.3256 35.0757 28.6538 35.3854 27.8677C35.6808 27.1053 35.8857 26.2335 35.9428 24.9518C36 23.6702 36.0143 23.2652 36.0143 20.0016C36.0143 16.738 36 16.333 35.9428 15.0513C35.8857 13.7745 35.6808 12.9026 35.3854 12.1355C35.0805 11.3446 34.666 10.6776 33.999 10.0106C33.3319 9.34357 32.6602 8.93383 31.874 8.62414C31.1117 8.32875 30.2398 8.12388 28.9582 8.0667C27.6718 8.01429 27.2621 8 24.0032 8Z" fill="#627583"/>
<path d="M24.0032 10.163C27.2096 10.163 27.586 10.1773 28.8534 10.2345C30.0254 10.2869 30.6591 10.4823 31.0831 10.649C31.6453 10.8682 32.0455 11.1255 32.4648 11.5447C32.8841 11.964 33.1461 12.3642 33.3605 12.9264C33.5225 13.3504 33.7226 13.9841 33.775 15.1562C33.8322 16.4235 33.8465 16.7999 33.8465 20.0064C33.8465 23.2128 33.8322 23.5892 33.775 24.8565C33.7226 26.0286 33.5273 26.6623 33.3605 27.0863C33.1414 27.6485 32.8841 28.0487 32.4648 28.468C32.0455 28.8872 31.6453 29.1493 31.0831 29.3637C30.6591 29.5257 30.0254 29.7258 28.8534 29.7782C27.586 29.8354 27.2096 29.8497 24.0032 29.8497C20.7967 29.8497 20.4203 29.8354 19.153 29.7782C17.9809 29.7258 17.3473 29.5304 16.9232 29.3637C16.361 29.1445 15.9608 28.8872 15.5416 28.468C15.1223 28.0487 14.8602 27.6485 14.6458 27.0863C14.4839 26.6623 14.2837 26.0286 14.2313 24.8565C14.1742 23.5892 14.1599 23.2128 14.1599 20.0064C14.1599 16.7999 14.1742 16.4235 14.2313 15.1562C14.2837 13.9841 14.4791 13.3504 14.6458 12.9264C14.865 12.3642 15.1223 11.964 15.5416 11.5447C15.9608 11.1255 16.361 10.8634 16.9232 10.649C17.3473 10.487 17.9809 10.2869 19.153 10.2345C20.4203 10.1726 20.8015 10.163 24.0032 10.163Z" fill="#627583"/>
<path d="M24.0032 13.8412C20.6014 13.8412 17.838 16.5998 17.838 20.0064C17.838 23.4129 20.5966 26.1715 24.0032 26.1715C27.4097 26.1715 30.1683 23.4129 30.1683 20.0064C30.1683 16.5998 27.4097 13.8412 24.0032 13.8412ZM24.0032 24.0037C21.7925 24.0037 20.0011 22.2123 20.0011 20.0016C20.0011 17.7909 21.7925 15.9995 24.0032 15.9995C26.2139 15.9995 28.0053 17.7909 28.0053 20.0016C28.0053 22.2123 26.2139 24.0037 24.0032 24.0037Z" fill="#AFCBE3"/>
<path d="M30.4114 15.0323C31.206 15.0323 31.8502 14.3881 31.8502 13.5934C31.8502 12.7987 31.206 12.1545 30.4114 12.1545C29.6167 12.1545 28.9725 12.7987 28.9725 13.5934C28.9725 14.3881 29.6167 15.0323 30.4114 15.0323Z" fill="#AFCBE3"/>
</g>
<defs>
<filter id="filter0_d_198_223" x="0" y="0" width="48" height="48" filterUnits="userSpaceOnUse" color-interpolation-filters="sRGB">
<feFlood flood-opacity="0" result="BackgroundImageFix"/>
<feColorMatrix in="SourceAlpha" type="matrix" values="0 0 0 0 0 0 0 0 0 0 0 0 0 0 0 0 0 0 127 0" result="hardAlpha"/>
<feOffset dy="4"/>
<feGaussianBlur stdDeviation="2"/>
<feComposite in2="hardAlpha" operator="out"/>
<feColorMatrix type="matrix" values="0 0 0 0 0 0 0 0 0 0 0 0 0 0 0 0 0 0 0.25 0"/>
<feBlend mode="normal" in2="BackgroundImageFix" result="effect1_dropShadow_198_223"/>
<feBlend mode="normal" in="SourceGraphic" in2="effect1_dropShadow_198_223" result="shape"/>
</filter>
</defs>
</svg>
