<svg width="48" height="48" viewBox="0 0 48 48" fill="none" xmlns="http://www.w3.org/2000/svg">
<g filter="url(#filter0_d_198_227)">
<rect x="4" width="40" height="40" rx="20" fill="#AFCBE3"/>
<path d="M33.376 9H14.624C14.1933 9 13.7802 9.1711 13.4757 9.47567C13.1711 9.78023 13 10.1933 13 10.624V29.376C13 29.8067 13.1711 30.2198 13.4757 30.5243C13.7802 30.8289 14.1933 31 14.624 31H33.376C33.8067 31 34.2198 30.8289 34.5243 30.5243C34.8289 30.2198 35 29.8067 35 29.376V10.624C35 10.1933 34.8289 9.78023 34.5243 9.47567C34.2198 9.1711 33.8067 9 33.376 9ZM19.5572 27.7413H16.2496V17.2347H19.5572V27.7413ZM17.9011 15.7788C17.5259 15.7766 17.1598 15.6634 16.8488 15.4534C16.5379 15.2434 16.2962 14.946 16.1541 14.5987C16.0121 14.2514 15.9761 13.8699 16.0507 13.5022C16.1253 13.1345 16.3072 12.7971 16.5733 12.5326C16.8395 12.2682 17.178 12.0885 17.5462 12.0163C17.9144 11.944 18.2957 11.9825 18.642 12.1267C18.9884 12.271 19.2842 12.5147 19.4923 12.8269C19.7003 13.1392 19.8111 13.5061 19.8108 13.8813C19.8144 14.1324 19.7673 14.3818 19.6724 14.6144C19.5776 14.847 19.4368 15.0582 19.2586 15.2352C19.0804 15.4123 18.8684 15.5517 18.6351 15.6451C18.4019 15.7384 18.1523 15.7839 17.9011 15.7788ZM31.7489 27.7504H28.4428V22.0106C28.4428 20.3178 27.7232 19.7953 26.7943 19.7953C25.8135 19.7953 24.851 20.5347 24.851 22.0533V27.7504H21.5433V17.2424H24.7242V18.6983H24.7669C25.0863 18.0521 26.2046 16.9475 27.9111 16.9475C29.7567 16.9475 31.7504 18.0429 31.7504 21.2513L31.7489 27.7504Z" fill="#607482"/>
</g>
<defs>
<filter id="filter0_d_198_227" x="0" y="0" width="48" height="48" filterUnits="userSpaceOnUse" color-interpolation-filters="sRGB">
<feFlood flood-opacity="0" result="BackgroundImageFix"/>
<feColorMatrix in="SourceAlpha" type="matrix" values="0 0 0 0 0 0 0 0 0 0 0 0 0 0 0 0 0 0 127 0" result="hardAlpha"/>
<feOffset dy="4"/>
<feGaussianBlur stdDeviation="2"/>
<feComposite in2="hardAlpha" operator="out"/>
<feColorMatrix type="matrix" values="0 0 0 0 0 0 0 0 0 0 0 0 0 0 0 0 0 0 0.25 0"/>
<feBlend mode="normal" in2="BackgroundImageFix" result="effect1_dropShadow_198_227"/>
<feBlend mode="normal" in="SourceGraphic" in2="effect1_dropShadow_198_227" result="shape"/>
</filter>
</defs>
</svg>
