<svg width="61" height="46" viewBox="0 0 61 46" fill="none" xmlns="http://www.w3.org/2000/svg">
<path d="M52.8984 14.3507C50.9982 16.1769 50.9819 22.3278 50.9819 23.9313V27.4321C50.9819 28.904 50.4489 30.3155 49.5002 31.3563C48.5514 32.3971 47.2646 32.9818 45.9229 32.9818H42.1834C41.4652 32.9829 40.7539 32.8287 40.0901 32.5279C39.4263 32.2271 38.8232 31.7856 38.3152 31.2287C37.8071 30.6719 37.4042 30.0105 37.1295 29.2826C36.8548 28.5547 36.7137 27.7745 36.7142 26.9867V17.0944C36.7184 16.344 36.4796 15.6163 36.0402 15.0411C35.6095 14.4656 35.0119 14.0694 34.3471 13.9187L37.5628 12.5424C37.9983 12.3618 38.4678 12.3027 38.9292 12.3705C39.3906 12.4382 39.8295 12.6307 40.2063 12.9306C40.5831 13.2304 40.8861 13.6283 41.0881 14.0884C41.29 14.5486 41.3846 15.0565 41.3632 15.5667V27.4677C41.36 28.1265 41.476 28.7795 41.7044 29.3888C41.9329 29.998 42.2693 30.5515 42.6941 31.0172C43.119 31.4828 43.6238 31.8514 44.1795 32.1014C44.7351 32.3515 45.3304 32.4781 45.931 32.474C48.4524 32.474 48.8016 29.9441 49.2157 27.1559L49.1548 18.0965L49.6055 17.1167L49.3416 22.8579C48.8909 22.0517 49.5527 17.0365 46.54 15.7315L52.8984 14.3507Z" fill="#F08D2D"/>
<path d="M35.8616 42.6335C31.3953 42.6335 29.284 40.1972 29.284 35.8991V21.9136C29.284 21.1119 28.5815 20.377 27.6152 20.377C26.186 20.377 25.0126 22.2699 24.8989 22.4303V32.8526C24.8973 33.0637 24.934 33.273 25.0069 33.4683C25.0797 33.6637 25.1873 33.8411 25.3234 33.9904C25.4595 34.1396 25.6212 34.2577 25.7993 34.3376C25.9774 34.4176 26.1682 34.4578 26.3606 34.456V35.2578H18.3173V34.456C18.51 34.4584 18.7012 34.4186 18.8798 34.3389C19.0583 34.2592 19.2206 34.1413 19.3571 33.992C19.4936 33.8427 19.6015 33.665 19.6747 33.4694C19.7478 33.2737 19.7846 33.064 19.783 32.8526V21.9136C19.783 21.1119 19.0806 20.377 18.1142 20.377C16.681 20.377 15.5116 22.2699 15.3939 22.4303L15.2518 31.454C15.2501 31.6651 15.2868 31.8744 15.3597 32.0698C15.4326 32.2651 15.5402 32.4426 15.6763 32.5918C15.8123 32.7411 15.9741 32.8591 16.1522 32.9391C16.3303 33.019 16.5211 33.0593 16.7135 33.0575V33.8592L8.81628 36.4069V34.456C9.00869 34.4578 9.19949 34.4176 9.37757 34.3376C9.55564 34.2577 9.71742 34.1396 9.85348 33.9904C9.98953 33.8411 10.0971 33.6637 10.17 33.4683C10.2429 33.273 10.2796 33.0637 10.278 32.8526V20.6665C10.2745 20.4837 10.2357 20.3039 10.1641 20.1388C10.0925 19.9737 9.98983 19.8272 9.86279 19.7089C9.73576 19.5906 9.58728 19.5032 9.42718 19.4525C9.26707 19.4019 9.09899 19.3891 8.93403 19.4149L8.81628 18.6444L15.3939 17.4908V20.8269C15.3939 20.8269 17.7935 17.2637 21.3909 17.2637C21.8353 17.241 22.2795 17.3156 22.6974 17.483C23.1154 17.6505 23.4988 17.9076 23.8253 18.2392C24.1518 18.5708 24.4148 18.9704 24.5992 19.4146C24.7835 19.8589 24.8854 20.339 24.8989 20.8269C24.8989 20.8269 27.2945 17.2637 30.8918 17.2637C33.9005 17.2637 34.3999 19.936 34.3999 20.8892V37.3422C34.3999 39.008 34.4851 41.0925 36.024 41.0925C36.901 41.0925 36.9294 40.2596 36.6655 39.4579C36.5559 39.1619 36.4968 38.8464 36.4909 38.527C36.4951 37.9673 36.6997 37.4319 37.0605 37.0361C37.4212 36.6404 37.9093 36.416 38.4195 36.4113C40.0883 36.4113 40.8557 38.5626 40.2629 40.0992C39.8081 41.4488 38.4926 42.6335 35.8616 42.6335Z" fill="#F08D2D"/>
<path d="M28.3948 37.6183C24.2331 39.1728 20.0023 40.5223 15.7309 41.6581C13.0601 42.4068 10.3475 42.9632 7.61044 43.3239C5.91986 43.5939 4.19983 43.5488 2.52296 43.1903C2.08445 43.0789 1.5688 42.8206 1.55662 42.3262C1.5711 42.0848 1.65659 41.855 1.80024 41.6715C3.77351 38.5804 7.12321 36.9502 10.3836 35.7343C11.7803 35.2176 13.1933 34.7455 14.6062 34.2734C13.4856 33.2713 12.9294 31.4807 11.3581 32.3003C9.16146 33.436 7.02171 34.1264 5.06061 35.6898C3.61922 36.8389 0.976009 39.0837 0.285768 40.941C0.109293 41.3438 0.012288 41.7828 0.00109345 42.2295C-0.0101011 42.6762 0.0647659 43.1204 0.220802 43.5332C0.626827 44.424 1.59316 44.8694 2.4986 45.101C4.14809 45.4377 5.83889 45.4513 7.49269 45.1411C10.3883 44.6436 13.2406 43.8793 16.0192 42.8562C20.0145 41.4695 23.9462 39.8839 27.8142 38.0994C28.0625 38.0196 28.2751 37.8419 28.4111 37.6005L28.3948 37.6183Z" fill="#F08D2D"/>
<path d="M56.4349 13.9365C54.9229 14.0199 53.4182 14.2209 51.9321 14.5378C51.8996 14.8541 51.4814 17.5086 51.453 17.8516C51.0063 15.7582 57.7666 14.5467 59.9795 15.2727C60.0851 15.3091 60.1828 15.3688 60.2667 15.4481C60.3505 15.5275 60.4187 15.6248 60.467 15.7341C60.5153 15.8434 60.5427 15.9623 60.5475 16.0837C60.5524 16.205 60.5345 16.3262 60.4951 16.4397C59.8008 18.3638 56.0288 21.1564 54.8108 22.2298C48.6143 27.13 41.9698 31.3095 34.9846 34.701C34.9846 34.7723 34.9846 34.9014 34.9846 34.9682C39.4834 32.8927 44.0065 30.7102 48.359 28.2873C52.1432 26.1182 55.8827 23.7754 58.9766 20.4839C62.4806 16.7069 61.3072 13.6693 56.4349 13.9365Z" fill="#F08D2D"/>
<path d="M39.4387 0L39.865 2.44523C39.9531 2.94043 40.1741 3.39545 40.4997 3.75181C40.8253 4.10817 41.2405 4.3496 41.6922 4.44508L43.9172 4.91274L41.6922 5.38486C41.2405 5.48034 40.8253 5.72177 40.4997 6.07813C40.1741 6.43449 39.9531 6.88951 39.865 7.38471L39.4387 9.82548L39.0083 7.38471C38.9206 6.89011 38.7002 6.43553 38.3754 6.07923C38.0506 5.72294 37.6362 5.48114 37.1853 5.38486L34.9603 4.91274L37.1853 4.44508C37.6362 4.3488 38.0506 4.107 38.3754 3.75071C38.7002 3.39441 38.9206 2.93983 39.0083 2.44523L39.4387 0Z" fill="#F08D2D"/>
</svg>
