<svg width="344" height="264" viewBox="0 0 344 264" fill="none" xmlns="http://www.w3.org/2000/svg">
<path d="M297.567 83.5973C286.878 94.2066 286.787 129.942 286.787 139.257V159.596C286.787 168.147 283.788 176.348 278.451 182.395C273.114 188.441 265.876 191.838 258.328 191.838H237.293C233.253 191.845 229.251 190.949 225.517 189.201C221.783 187.454 218.391 184.889 215.533 181.654C212.675 178.418 210.409 174.576 208.863 170.347C207.318 166.118 206.524 161.586 206.527 157.008V99.5371C206.551 95.1774 205.207 90.9499 202.736 87.6081C200.313 84.2645 196.951 81.963 193.212 81.0873L211.301 73.0915C213.75 72.0422 216.392 71.699 218.987 72.0926C221.583 72.4862 224.051 73.6043 226.171 75.3464C228.291 77.0886 229.995 79.4002 231.131 82.0734C232.267 84.7467 232.799 87.6978 232.679 90.6616V159.803C232.661 163.631 233.313 167.424 234.598 170.964C235.883 174.504 237.776 177.719 240.166 180.425C242.556 183.13 245.396 185.271 248.521 186.724C251.647 188.176 254.996 188.912 258.374 188.888C272.557 188.888 274.522 174.19 276.851 157.992L276.509 105.359L279.044 99.6665L277.559 133.021C275.024 128.338 278.747 99.2007 261.8 91.619L297.567 83.5973Z" fill="white"/>
<path d="M201.731 247.912C176.607 247.912 164.73 233.757 164.73 208.787V127.535C164.73 122.878 160.779 118.608 155.343 118.608C147.303 118.608 140.703 129.605 140.063 130.537V191.087C140.054 192.314 140.261 193.53 140.67 194.665C141.08 195.799 141.686 196.83 142.451 197.698C143.216 198.565 144.126 199.25 145.128 199.715C146.13 200.179 147.203 200.413 148.286 200.403V205.061H103.04V200.403C104.124 200.417 105.2 200.185 106.204 199.722C107.208 199.26 108.121 198.574 108.889 197.707C109.657 196.839 110.264 195.807 110.676 194.671C111.087 193.534 111.294 192.316 111.285 191.087V127.535C111.285 122.878 107.334 118.608 101.898 118.608C93.8352 118.608 87.2573 129.605 86.595 130.537L85.7955 182.962C85.7864 184.188 85.9928 185.404 86.4028 186.539C86.8128 187.674 87.4181 188.705 88.1835 189.572C88.9488 190.439 89.8589 191.125 90.8606 191.59C91.8623 192.054 92.9356 192.288 94.0179 192.278V196.935L49.5942 211.737V200.403C50.6766 200.413 51.7499 200.179 52.7516 199.715C53.7533 199.25 54.6634 198.565 55.4287 197.698C56.1941 196.83 56.7993 195.799 57.2093 194.665C57.6193 193.53 57.8258 192.314 57.8166 191.087V120.29C57.797 119.228 57.5786 118.183 57.176 117.224C56.7734 116.265 56.1957 115.414 55.4811 114.726C54.7665 114.039 53.9313 113.532 53.0307 113.237C52.13 112.943 51.1845 112.868 50.2566 113.019L49.5942 108.542L86.595 101.84V121.221C86.595 121.221 100.093 100.52 120.33 100.52C122.83 100.389 125.328 100.822 127.679 101.795C130.03 102.768 132.187 104.261 134.024 106.188C135.86 108.115 137.34 110.436 138.377 113.017C139.414 115.598 139.987 118.387 140.063 121.221C140.063 121.221 153.539 100.52 173.775 100.52C190.699 100.52 193.509 116.046 193.509 121.584V217.171C193.509 226.848 193.988 238.959 202.645 238.959C207.578 238.959 207.738 234.12 206.253 229.462C205.637 227.742 205.304 225.909 205.271 224.054C205.295 220.802 206.446 217.692 208.475 215.393C210.505 213.093 213.25 211.79 216.12 211.763C225.507 211.763 229.824 224.261 226.49 233.188C223.931 241.029 216.531 247.912 201.731 247.912Z" fill="white"/>
<path d="M159.728 218.775C136.317 227.806 112.518 235.647 88.4906 242.245C73.4662 246.595 58.2071 249.827 42.8107 251.923C33.3007 253.492 23.6251 253.229 14.1923 251.147C11.7256 250.5 8.82491 248.999 8.75639 246.127C8.83786 244.724 9.31874 243.389 10.1268 242.323C21.227 224.365 40.0699 214.894 58.4104 207.83C66.2673 204.828 74.2156 202.085 82.1639 199.342C75.8601 193.52 72.731 183.118 63.892 187.879C51.5356 194.477 39.4989 198.488 28.4673 207.571C20.3591 214.247 5.4903 227.289 1.60752 238.079C0.614804 240.419 0.069123 242.97 0.00615094 245.565C-0.0568211 248.16 0.364325 250.741 1.24207 253.139C3.52606 258.314 8.96197 260.902 14.0553 262.248C23.3341 264.203 32.8453 264.282 42.1483 262.48C58.4371 259.59 74.4818 255.149 90.1122 249.206C112.587 241.15 134.703 231.938 156.462 221.57C157.859 221.107 159.055 220.075 159.82 218.672L159.728 218.775Z" fill="white"/>
<path d="M317.461 81.1914C308.955 81.6758 300.491 82.8432 292.131 84.6847C291.949 86.5219 289.596 101.944 289.436 103.937C286.924 91.7748 324.952 84.7364 337.4 88.9542C337.994 89.1656 338.544 89.5124 339.016 89.9733C339.487 90.4343 339.871 90.9995 340.142 91.6345C340.414 92.2695 340.568 92.9607 340.596 93.6656C340.623 94.3706 340.522 95.0744 340.301 95.7338C336.395 106.912 315.177 123.137 308.325 129.373C273.468 157.841 236.091 182.123 196.798 201.827C196.798 202.241 196.798 202.991 196.798 203.379C222.104 191.321 247.548 178.641 272.032 164.565C293.319 151.963 314.355 138.352 331.759 119.229C351.469 97.2864 344.869 79.6388 317.461 81.1914Z" fill="white"/>
<path d="M221.853 0.224365L224.251 14.4303C224.747 17.3073 225.99 19.9508 227.821 22.0211C229.653 24.0914 231.989 25.4941 234.529 26.0488L247.046 28.7657L234.529 31.5086C231.989 32.0633 229.653 33.466 227.821 35.5363C225.99 37.6066 224.747 40.2501 224.251 43.1271L221.853 57.3071L219.432 43.1271C218.938 40.2536 217.698 37.6127 215.871 35.5427C214.044 33.4727 211.713 32.068 209.177 31.5086L196.661 28.7657L209.177 26.0488C211.713 25.4894 214.044 24.0847 215.871 22.0147C217.698 19.9447 218.938 17.3038 219.432 14.4303L221.853 0.224365Z" fill="white"/>
</svg>
