<svg width="486" height="486" viewBox="0 0 486 486" fill="none" xmlns="http://www.w3.org/2000/svg">
<path d="M275.292 243.009C275.292 260.947 260.768 275.486 242.853 275.486C224.938 275.486 210.414 260.947 210.414 243.009C210.414 225.072 224.938 210.532 242.853 210.532C260.768 210.532 275.292 225.072 275.292 243.009Z" stroke="#C47013"/>
<path d="M303.526 243.01C303.526 276.557 276.361 303.752 242.853 303.752C209.345 303.752 182.181 276.557 182.181 243.01C182.181 209.462 209.345 182.267 242.853 182.267C276.361 182.267 303.526 209.462 303.526 243.01Z" stroke="#C47013"/>
<path d="M334.112 243.01C334.112 293.469 293.254 334.374 242.853 334.374C192.453 334.374 151.595 293.469 151.595 243.01C151.595 192.55 192.453 151.645 242.853 151.645C293.254 151.645 334.112 192.55 334.112 243.01Z" stroke="#C47013"/>
<path d="M362.345 243.01C362.345 309.08 308.847 362.64 242.853 362.64C176.86 362.64 123.361 309.08 123.361 243.01C123.361 176.939 176.86 123.379 242.853 123.379C308.847 123.379 362.345 176.939 362.345 243.01Z" stroke="#C47013"/>
<path d="M392.932 243.01C392.932 325.992 325.739 393.261 242.853 393.261C159.968 393.261 92.7751 325.992 92.7751 243.01C92.7751 160.027 159.968 92.7578 242.853 92.7578C325.739 92.7578 392.932 160.027 392.932 243.01Z" stroke="#C47013"/>
<path d="M423.518 243.01C423.518 342.904 342.631 423.883 242.853 423.883C143.076 423.883 62.189 342.904 62.189 243.01C62.189 143.115 143.076 62.1362 242.853 62.1362C342.631 62.1362 423.518 143.115 423.518 243.01Z" stroke="#C47013"/>
<path d="M456.457 243.009C456.457 361.116 360.823 456.86 242.853 456.86C124.884 456.86 29.2499 361.116 29.2499 243.009C29.2499 124.903 124.884 29.1592 242.853 29.1592C360.823 29.1592 456.457 124.903 456.457 243.009Z" stroke="#C47013"/>
<path d="M484.69 243.01C484.69 376.727 376.416 485.126 242.853 485.126C109.291 485.126 1.01657 376.727 1.01657 243.01C1.01657 109.292 109.291 0.893311 242.853 0.893311C376.416 0.893311 484.69 109.292 484.69 243.01Z" stroke="#C47013"/>
<path d="M339.656 265.272C339.656 270.511 335.414 274.756 330.184 274.756C324.953 274.756 320.711 270.511 320.711 265.272C320.711 260.032 324.953 255.787 330.184 255.787C335.414 255.787 339.656 260.032 339.656 265.272Z" stroke="#C47013" stroke-width="2"/>
<path d="M71.4386 237.006C71.4386 242.245 67.1965 246.49 61.9661 246.49C56.7356 246.49 52.4935 242.245 52.4935 237.006C52.4935 231.767 56.7356 227.521 61.9661 227.521C67.1965 227.521 71.4386 231.767 71.4386 237.006Z" stroke="#C47013" stroke-width="2"/>
<path d="M460.432 291.182C460.432 296.421 456.19 300.667 450.96 300.667C445.729 300.667 441.487 296.421 441.487 291.182C441.487 285.943 445.729 281.697 450.96 281.697C456.19 281.697 460.432 285.943 460.432 291.182Z" stroke="#C47013" stroke-width="2"/>
<path d="M310.832 39.2405C305.126 44.2338 305.078 61.0528 305.078 65.4372V75.0098C305.078 79.0344 303.477 82.8942 300.629 85.74C297.78 88.5859 293.916 90.1847 289.887 90.1847H278.659C276.503 90.1879 274.367 89.7661 272.374 88.9436C270.381 88.1211 268.57 86.9139 267.045 85.3912C265.519 83.8685 264.309 82.0602 263.485 80.0699C262.66 78.0795 262.236 75.9461 262.238 73.7919V46.7427C262.25 44.6907 261.533 42.701 260.214 41.1282C258.921 39.5545 257.126 38.4713 255.13 38.0591L264.786 34.2958C266.093 33.802 267.503 33.6405 268.888 33.8257C270.274 34.011 271.591 34.5372 272.723 35.3571C273.854 36.1771 274.764 37.2651 275.37 38.5233C275.977 39.7814 276.261 41.1704 276.197 42.5653V75.1072C276.187 76.9087 276.535 78.6941 277.221 80.3601C277.907 82.0261 278.917 83.5396 280.193 84.8128C281.468 86.086 282.984 87.0938 284.653 87.7775C286.321 88.4613 288.109 88.8076 289.912 88.7963C297.483 88.7963 298.531 81.8787 299.774 74.2547L299.592 49.4829L300.945 46.8035L300.152 62.5021C298.799 60.2977 300.786 46.5843 291.74 43.0159L310.832 39.2405Z" fill="#FC921D"/>
<path d="M259.678 116.576C246.267 116.576 239.928 109.914 239.928 98.1615V59.9199C239.928 57.7277 237.819 55.7182 234.917 55.7182C230.626 55.7182 227.103 60.8942 226.761 61.3327V89.8312C226.756 90.4083 226.867 90.9807 227.085 91.5148C227.304 92.0489 227.627 92.5342 228.036 92.9423C228.444 93.3504 228.93 93.6732 229.465 93.8918C229.999 94.1104 230.572 94.2205 231.15 94.2156V96.4078H206.999V94.2156C207.578 94.2221 208.152 94.1132 208.688 93.8953C209.224 93.6774 209.712 93.3549 210.121 92.9466C210.531 92.5384 210.855 92.0526 211.075 91.5176C211.295 90.9827 211.405 90.4094 211.4 89.8312V59.9199C211.4 57.7277 209.291 55.7182 206.39 55.7182C202.086 55.7182 198.575 60.8942 198.222 61.3327L197.795 86.007C197.79 86.5841 197.9 87.1565 198.119 87.6906C198.338 88.2247 198.661 88.71 199.069 89.1181C199.478 89.5262 199.964 89.849 200.498 90.0676C201.033 90.2862 201.606 90.3963 202.184 90.3914V92.5836L178.472 99.5499V94.2156C179.049 94.2205 179.622 94.1104 180.157 93.8918C180.692 93.6732 181.177 93.3504 181.586 92.9423C181.995 92.5342 182.318 92.0489 182.536 91.5148C182.755 90.9807 182.865 90.4083 182.861 89.8312V56.5098C182.85 56.0101 182.734 55.5183 182.519 55.0669C182.304 54.6156 181.995 54.2149 181.614 53.8914C181.233 53.5679 180.787 53.329 180.306 53.1904C179.825 53.0519 179.321 53.0168 178.825 53.0876L178.472 50.9807L198.222 47.8263V56.9483C198.222 56.9483 205.427 47.2052 216.228 47.2052C217.563 47.1432 218.896 47.3471 220.151 47.805C221.406 48.263 222.557 48.9658 223.538 49.8726C224.518 50.7794 225.308 51.872 225.861 53.0868C226.415 54.3016 226.721 55.6142 226.761 56.9483C226.761 56.9483 233.954 47.2052 244.755 47.2052C253.789 47.2052 255.289 54.5125 255.289 57.1188V102.107C255.289 106.662 255.545 112.362 260.165 112.362C262.798 112.362 262.884 110.085 262.091 107.892C261.762 107.083 261.585 106.22 261.567 105.347C261.58 103.817 262.194 102.353 263.277 101.271C264.361 100.188 265.826 99.5748 267.358 99.5621C272.369 99.5621 274.673 105.444 272.893 109.646C271.527 113.336 267.577 116.576 259.678 116.576Z" fill="#FC921D"/>
<path d="M237.258 102.863C224.762 107.113 212.059 110.803 199.233 113.909C191.214 115.956 183.069 117.478 174.851 118.464C169.775 119.202 164.61 119.079 159.575 118.099C158.259 117.794 156.71 117.088 156.674 115.736C156.717 115.076 156.974 114.447 157.405 113.946C163.33 105.493 173.388 101.036 183.178 97.7111C187.371 96.2984 191.614 95.0074 195.857 93.7164C192.492 90.9762 190.822 86.0803 186.104 88.3212C179.508 91.4268 173.083 93.3145 167.195 97.5893C162.867 100.731 154.931 106.87 152.858 111.948C152.328 113.049 152.037 114.25 152.003 115.471C151.97 116.693 152.194 117.908 152.663 119.036C153.882 121.472 156.784 122.69 159.502 123.323C164.455 124.244 169.532 124.281 174.497 123.433C183.192 122.072 191.756 119.982 200.099 117.185C212.095 113.393 223.9 109.058 235.515 104.178C236.26 103.96 236.898 103.474 237.307 102.814L237.258 102.863Z" fill="#FC921D"/>
<path d="M321.451 38.108C316.911 38.336 312.393 38.8855 307.931 39.7522C307.833 40.6169 306.577 47.8755 306.492 48.8133C305.151 43.0892 325.449 39.7765 332.094 41.7617C332.411 41.8612 332.704 42.0244 332.956 42.2413C333.208 42.4583 333.412 42.7243 333.557 43.0232C333.702 43.322 333.785 43.6473 333.799 43.9791C333.814 44.3109 333.76 44.6422 333.642 44.9525C331.557 50.2138 320.231 57.85 316.574 60.7851C297.969 74.1839 278.018 85.6124 257.044 94.8859C257.044 95.0807 257.044 95.4339 257.044 95.6166C270.552 89.9413 284.133 83.9736 297.202 77.3483C308.564 71.4172 319.793 65.0111 329.082 56.0109C339.603 45.6833 336.08 37.3773 321.451 38.108Z" fill="#FC921D"/>
<path d="M270.418 0L271.698 6.68618C271.963 8.04024 272.626 9.28443 273.604 10.2589C274.581 11.2333 275.828 11.8934 277.184 12.1545L283.865 13.4333L277.184 14.7242C275.828 14.9853 274.581 15.6455 273.604 16.6199C272.626 17.5943 271.963 18.8385 271.698 20.1926L270.418 26.8666L269.126 20.1926C268.862 18.8402 268.2 17.5972 267.225 16.6229C266.25 15.6487 265.006 14.9875 263.652 14.7242L256.971 13.4333L263.652 12.1545C265.006 11.8912 266.25 11.2301 267.225 10.2558C268.2 9.28159 268.862 8.03859 269.126 6.68618L270.418 0Z" fill="#FC921D"/>
</svg>
