<svg width="184" height="125" viewBox="0 0 184 125" fill="none" xmlns="http://www.w3.org/2000/svg">
<path d="M158.832 39.2405C153.126 44.2338 153.078 61.0528 153.078 65.4372V75.0098C153.078 79.0344 151.477 82.8942 148.629 85.74C145.78 88.5859 141.916 90.1847 137.887 90.1847H126.659C124.503 90.1879 122.367 89.7661 120.374 88.9436C118.381 88.1211 116.57 86.9139 115.045 85.3912C113.519 83.8685 112.309 82.0602 111.485 80.0699C110.66 78.0795 110.236 75.9461 110.238 73.7919V46.7427C110.25 44.6907 109.533 42.701 108.214 41.1282C106.921 39.5545 105.126 38.4713 103.13 38.0591L112.786 34.2958C114.093 33.802 115.503 33.6405 116.888 33.8257C118.274 34.011 119.591 34.5372 120.723 35.3571C121.854 36.1771 122.764 37.2651 123.37 38.5233C123.977 39.7814 124.261 41.1704 124.197 42.5653V75.1073C124.187 76.9087 124.535 78.6941 125.221 80.3601C125.907 82.0261 126.917 83.5396 128.193 84.8128C129.468 86.086 130.984 87.0938 132.653 87.7775C134.321 88.4613 136.109 88.8076 137.912 88.7963C145.483 88.7963 146.531 81.8787 147.774 74.2547L147.592 49.4829L148.945 46.8035L148.152 62.5021C146.799 60.2977 148.786 46.5843 139.74 43.0159L158.832 39.2405Z" fill="#FC921D"/>
<path d="M107.678 116.576C94.2672 116.576 87.9277 109.914 87.9277 98.1615V59.9199C87.9277 57.7277 85.8186 55.7182 82.9171 55.7182C78.6258 55.7182 75.1025 60.8942 74.7612 61.3327V89.8312C74.7563 90.4083 74.8665 90.9807 75.0854 91.5148C75.3042 92.0489 75.6273 92.5342 76.0358 92.9423C76.4443 93.3504 76.9301 93.6732 77.4647 93.8918C77.9994 94.1104 78.5723 94.2205 79.15 94.2156V96.4078H54.9992V94.2156C55.5779 94.2221 56.1522 94.1132 56.6883 93.8953C57.2244 93.6774 57.7116 93.3549 58.1214 92.9466C58.5312 92.5384 58.8554 92.0526 59.075 91.5176C59.2946 90.9827 59.4052 90.4094 59.4003 89.8312V59.9199C59.4003 57.7277 57.2912 55.7182 54.3897 55.7182C50.0861 55.7182 46.5751 60.8942 46.2215 61.3327L45.7948 86.007C45.79 86.5841 45.9001 87.1565 46.119 87.6906C46.3378 88.2248 46.6609 88.71 47.0694 89.1181C47.478 89.5262 47.9637 89.849 48.4984 90.0676C49.0331 90.2862 49.606 90.3963 50.1837 90.3914V92.5836L26.4717 99.5499V94.2156C27.0494 94.2205 27.6224 94.1104 28.157 93.8918C28.6917 93.6732 29.1775 93.3504 29.586 92.9423C29.9945 92.5342 30.3176 92.0489 30.5364 91.5148C30.7553 90.9807 30.8655 90.4083 30.8606 89.8312V56.5098C30.8501 56.0101 30.7335 55.5183 30.5186 55.0669C30.3037 54.6156 29.9954 54.2149 29.614 53.8914C29.2325 53.5679 28.7867 53.329 28.306 53.1904C27.8253 53.0519 27.3206 53.0168 26.8253 53.0876L26.4717 50.9807L46.2215 47.8263V56.9483C46.2215 56.9483 53.4266 47.2052 64.228 47.2052C65.5626 47.1432 66.8962 47.3471 68.1511 47.805C69.406 48.263 70.5572 48.9658 71.5375 49.8726C72.5178 50.7794 73.3078 51.872 73.8612 53.0868C74.4147 54.3016 74.7206 55.6142 74.7612 56.9483C74.7612 56.9483 81.954 47.2052 92.7555 47.2052C101.789 47.2052 103.289 54.5125 103.289 57.1188V102.107C103.289 106.662 103.545 112.362 108.165 112.362C110.798 112.362 110.884 110.085 110.091 107.892C109.762 107.083 109.585 106.22 109.567 105.347C109.58 103.817 110.194 102.353 111.277 101.271C112.361 100.188 113.826 99.5748 115.358 99.5621C120.369 99.5621 122.673 105.444 120.893 109.646C119.527 113.336 115.577 116.576 107.678 116.576Z" fill="#FC921D"/>
<path d="M85.2579 102.863C72.7619 107.113 60.0586 110.803 47.2335 113.909C39.2139 115.956 31.0691 117.478 22.851 118.464C17.7749 119.202 12.6103 119.079 7.5754 118.099C6.25875 117.794 4.71046 117.088 4.67388 115.736C4.71737 115.076 4.97405 114.447 5.40537 113.946C11.3303 105.493 21.3881 101.036 31.1776 97.7111C35.3714 96.2984 39.614 95.0074 43.8565 93.7164C40.4917 90.9762 38.8215 86.0803 34.1035 88.3212C27.5081 91.4268 21.0833 93.3145 15.1949 97.5893C10.867 100.731 2.93055 106.87 0.858042 111.948C0.328163 113.049 0.0368957 114.25 0.00328318 115.471C-0.0303293 116.693 0.194465 117.908 0.662978 119.036C1.8821 121.472 4.78361 122.69 7.50226 123.323C12.455 124.244 17.5318 124.281 22.4975 123.433C31.1919 122.072 39.756 119.982 48.099 117.185C60.0952 113.393 71.9004 109.058 83.5146 104.178C84.2601 103.96 84.8984 103.474 85.3067 102.814L85.2579 102.863Z" fill="#FC921D"/>
<path d="M169.451 38.108C164.911 38.336 160.393 38.8855 155.931 39.7522C155.833 40.6169 154.577 47.8755 154.492 48.8133C153.151 43.0892 173.449 39.7765 180.094 41.7617C180.411 41.8612 180.704 42.0244 180.956 42.2413C181.208 42.4583 181.412 42.7243 181.557 43.0232C181.702 43.322 181.785 43.6473 181.799 43.9791C181.814 44.3109 181.76 44.6422 181.642 44.9525C179.557 50.2138 168.231 57.85 164.574 60.7851C145.969 74.1839 126.018 85.6124 105.044 94.8859C105.044 95.0807 105.044 95.4339 105.044 95.6166C118.552 89.9413 132.133 83.9736 145.202 77.3483C156.564 71.4172 167.793 65.0111 177.082 56.0109C187.603 45.6833 184.08 37.3773 169.451 38.108Z" fill="#FC921D"/>
<path d="M118.418 0L119.698 6.68618C119.963 8.04024 120.626 9.28443 121.604 10.2589C122.581 11.2333 123.828 11.8934 125.184 12.1545L131.865 13.4333L125.184 14.7242C123.828 14.9853 122.581 15.6455 121.604 16.6199C120.626 17.5943 119.963 18.8385 119.698 20.1926L118.418 26.8666L117.126 20.1926C116.862 18.8402 116.2 17.5972 115.225 16.6229C114.25 15.6487 113.006 14.9875 111.652 14.7242L104.971 13.4333L111.652 12.1545C113.006 11.8912 114.25 11.2301 115.225 10.2558C116.2 9.28159 116.862 8.03859 117.126 6.68618L118.418 0Z" fill="#FC921D"/>
</svg>
